# xmcd
#
# Track frame offsets: 
#        150
#        14569
#        33665
#        54938
#        66660
#        82912
#        94654
#        109101
#        121419
#        135123
#        150420
#
# Disc length: 2227 seconds
#
# Revision: 1
# Processed by: cddbd v1.4PL0 Copyright (c) Steve Scherf et al.
# Submitted via: ExactAudioCopy v0.90b4
#
DISCID=8508b10b
DTITLE=Bosse Siljewall - 1st Take
DYEAR=2001
DGENRE=Blues
TTITLE0=Walking Blues
TTITLE1=You Gotta Move
TTITLE2=Come On In My Kitchen
TTITLE3=Get Rhythm
TTITLE4=Stones In My Passway
TTITLE5=Hellhounds On My Trail
TTITLE6=Steady Rollin' Man
TTITLE7=Wheels Rollin'
TTITLE8=Rollin' and Tunblin'
TTITLE9=God Don't Ever Change
TTITLE10=I'm Gone Bad Mama
EXTD=
EXTT0=
EXTT1=
EXTT2=
EXTT3=
EXTT4=
EXTT5=
EXTT6=
EXTT7=
EXTT8=
EXTT9=
EXTT10=
PLAYORDER=
